<svg width="29" height="29" viewBox="0 0 29 29" fill="none" xmlns="http://www.w3.org/2000/svg">
<path d="M25.375 20.8438V9.96875L14.5 8.15625L3.625 9.96875V20.8438C3.625 22.0455 4.1024 23.1981 4.95217 24.0478C5.80195 24.8976 6.95449 25.375 8.15625 25.375H20.8438C22.0455 25.375 23.1981 24.8976 24.0478 24.0478C24.8976 23.1981 25.375 22.0455 25.375 20.8438Z" fill="url(#paint0_linear_2_67)"/>
<path d="M25.375 20.8438V9.96875L14.5 8.15625L3.625 9.96875V20.8438C3.625 22.0455 4.1024 23.1981 4.95217 24.0478C5.80195 24.8976 6.95449 25.375 8.15625 25.375H20.8438C22.0455 25.375 23.1981 24.8976 24.0478 24.0478C24.8976 23.1981 25.375 22.0455 25.375 20.8438Z" fill="url(#paint1_linear_2_67)"/>
<g filter="url(#filter0_d_2_67)">
<path d="M9.51199 16.3071C9.8718 16.3071 10.2169 16.1641 10.4713 15.9097C10.7257 15.6553 10.8686 15.3102 10.8686 14.9504C10.8686 14.5906 10.7257 14.2455 10.4713 13.9911C10.2169 13.7367 9.8718 13.5938 9.51199 13.5938C9.15218 13.5938 8.80711 13.7367 8.55269 13.9911C8.29827 14.2455 8.15533 14.5906 8.15533 14.9504C8.15533 15.3102 8.29827 15.6553 8.55269 15.9097C8.80711 16.1641 9.15218 16.3071 9.51199 16.3071ZM10.8696 19.4826C10.8696 19.8424 10.7266 20.1874 10.4722 20.4419C10.2178 20.6963 9.8727 20.8392 9.5129 20.8392C9.15309 20.8392 8.80802 20.6963 8.5536 20.4419C8.29917 20.1874 8.15624 19.8424 8.15624 19.4826C8.15624 19.1228 8.29917 18.7777 8.5536 18.5233C8.80802 18.2688 9.15309 18.1259 9.5129 18.1259C9.8727 18.1259 10.2178 18.2688 10.4722 18.5233C10.7266 18.7777 10.8696 19.1228 10.8696 19.4826ZM14.5 16.3071C14.8598 16.3071 15.2049 16.1641 15.4593 15.9097C15.7137 15.6553 15.8566 15.3102 15.8566 14.9504C15.8566 14.5906 15.7137 14.2455 15.4593 13.9911C15.2049 13.7367 14.8598 13.5938 14.5 13.5938C14.1402 13.5938 13.7951 13.7367 13.5407 13.9911C13.2863 14.2455 13.1433 14.5906 13.1433 14.9504C13.1433 15.3102 13.2863 15.6553 13.5407 15.9097C13.7951 16.1641 14.1402 16.3071 14.5 16.3071ZM15.8576 19.4826C15.8576 19.8424 15.7146 20.1874 15.4602 20.4419C15.2058 20.6963 14.8607 20.8392 14.5009 20.8392C14.1411 20.8392 13.796 20.6963 13.5416 20.4419C13.2872 20.1874 13.1442 19.8424 13.1442 19.4826C13.1442 19.1228 13.2872 18.7777 13.5416 18.5233C13.796 18.2688 14.1411 18.1259 14.5009 18.1259C14.8607 18.1259 15.2058 18.2688 15.4602 18.5233C15.7146 18.7777 15.8576 19.1228 15.8576 19.4826ZM19.4826 16.3071C19.8424 16.3071 20.1874 16.1641 20.4419 15.9097C20.6963 15.6553 20.8392 15.3102 20.8392 14.9504C20.8392 14.5906 20.6963 14.2455 20.4419 13.9911C20.1874 13.7367 19.8424 13.5938 19.4826 13.5938C19.1227 13.5938 18.7777 13.7367 18.5233 13.9911C18.2688 14.2455 18.1259 14.5906 18.1259 14.9504C18.1259 15.3102 18.2688 15.6553 18.5233 15.9097C18.7777 16.1641 19.1227 16.3071 19.4826 16.3071Z" fill="url(#paint2_linear_2_67)"/>
</g>
<path d="M25.375 8.15625C25.375 6.95449 24.8976 5.80195 24.0478 4.95217C23.1981 4.1024 22.0455 3.625 20.8438 3.625H8.15625C6.95449 3.625 5.80195 4.1024 4.95217 4.95217C4.1024 5.80195 3.625 6.95449 3.625 8.15625V10.875H25.375V8.15625Z" fill="url(#paint3_linear_2_67)"/>
<defs>
<filter id="filter0_d_2_67" x="6.82133" y="12.9268" width="15.3519" height="9.91347" filterUnits="userSpaceOnUse" color-interpolation-filters="sRGB">
<feFlood flood-opacity="0" result="BackgroundImageFix"/>
<feColorMatrix in="SourceAlpha" type="matrix" values="0 0 0 0 0 0 0 0 0 0 0 0 0 0 0 0 0 0 127 0" result="hardAlpha"/>
<feOffset dy="0.667"/>
<feGaussianBlur stdDeviation="0.667"/>
<feColorMatrix type="matrix" values="0 0 0 0 0.1242 0 0 0 0 0.323337 0 0 0 0 0.7958 0 0 0 0.32 0"/>
<feBlend mode="normal" in2="BackgroundImageFix" result="effect1_dropShadow_2_67"/>
<feBlend mode="normal" in="SourceGraphic" in2="effect1_dropShadow_2_67" result="shape"/>
</filter>
<linearGradient id="paint0_linear_2_67" x1="18.4277" y1="27.4902" x2="12.0839" y2="9.0625" gradientUnits="userSpaceOnUse">
<stop stop-color="#B3E0FF"/>
<stop offset="1" stop-color="#B3E0FF"/>
</linearGradient>
<linearGradient id="paint1_linear_2_67" x1="16.8309" y1="15.1996" x2="19.9828" y2="29.2791" gradientUnits="userSpaceOnUse">
<stop stop-color="#DCF8FF" stop-opacity="0"/>
<stop offset="1" stop-color="#FF6CE8" stop-opacity="0.7"/>
</linearGradient>
<linearGradient id="paint2_linear_2_67" x1="13.3436" y1="12.7582" x2="15.5259" y2="27.2654" gradientUnits="userSpaceOnUse">
<stop stop-color="#0078D4"/>
<stop offset="1" stop-color="#0067BF"/>
</linearGradient>
<linearGradient id="paint3_linear_2_67" x1="3.625" y1="3.625" x2="22.7505" y2="-1.52069" gradientUnits="userSpaceOnUse">
<stop stop-color="#0094F0"/>
<stop offset="1" stop-color="#2764E7"/>
</linearGradient>
</defs>
</svg>
