<svg width="208" height="208" viewBox="0 0 208 208" fill="none" xmlns="http://www.w3.org/2000/svg">
<path d="M55.7143 200.571H21.2309C17.5741 200.567 14.0679 199.114 11.4808 196.53C8.89361 193.945 7.43645 190.441 7.42859 186.784V152.286M200.571 152.286V186.784C200.564 190.441 199.106 193.945 196.519 196.53C193.932 199.114 190.426 200.567 186.769 200.571H152.286M152.286 7.42856H186.769C190.429 7.43249 193.937 8.88792 196.525 11.4755C199.112 14.0631 200.568 17.5715 200.571 21.2308V55.7143M7.42859 55.7143V21.2308C7.43252 17.5715 8.88795 14.0631 11.4755 11.4755C14.0631 8.88792 17.5715 7.43249 21.2309 7.42856H55.7143M7.42859 104H200.571" stroke="black" stroke-linecap="round" stroke-linejoin="round"/>
</svg>
